<svg width="33" height="27" viewBox="0 0 33 27" fill="none" xmlns="http://www.w3.org/2000/svg">
<g id="Group">
<g id="Group_2">
<path id="Vector" d="M5.84414 10.5559V3.8947C5.84414 3.38572 6.25826 2.97167 6.76723 2.97167C7.27627 2.97167 7.69033 3.38578 7.69033 3.8947H9.79084C9.79084 2.22748 8.43445 0.871094 6.76717 0.871094C5.0999 0.871094 3.74363 2.22755 3.74363 3.8947V10.5559H0V16.0765H1.57493V19.6279C1.57493 22.1028 3.44231 24.1485 5.84182 24.4332L5.23206 26.1689L7.21393 26.8651L8.05594 24.4684H24.1525L24.9944 26.8651L26.9763 26.1689L26.3666 24.4332C28.7661 24.1484 30.6334 22.1027 30.6334 19.6279V16.0765H32.2082V10.5559H5.84414V10.5559ZM28.5327 19.6278C28.5327 21.1386 27.3036 22.3678 25.7927 22.3678H6.41546C4.90463 22.3678 3.67544 21.1386 3.67544 19.6278V16.0764H28.5327V19.6278ZM30.1076 13.9759H2.10051V12.6564H30.1076V13.9759H30.1076Z" fill="#404A5E"/>
</g>
</g>
</svg>
