<svg width="30" height="25" viewBox="0 0 30 25" fill="none" xmlns="http://www.w3.org/2000/svg">
<g id="Group">
<path id="Vector" d="M15.7407 9.70433C15.7407 6.34034 13.003 3.60352 9.63987 3.60352C6.24381 3.60352 3.48096 6.34034 3.48096 9.70433C3.48096 13.0683 6.24381 15.8051 9.63987 15.8051C13.0283 15.8051 15.7407 13.0436 15.7407 9.70433ZM13.9976 9.70433C13.9976 10.8429 13.5582 11.8805 12.8407 12.6575C12.2671 11.2806 12.1098 9.77609 12.3872 8.2503C12.4813 7.73284 12.6295 7.22746 12.8291 6.73898C13.5534 7.51745 13.9976 8.55976 13.9976 9.70433ZM5.22405 9.70433C5.22405 7.30148 7.20495 5.3466 9.63987 5.3466C10.2569 5.3466 10.8441 5.47629 11.3765 5.70864C11.0486 6.42232 10.8122 7.16906 10.6722 7.93846C10.3088 9.93709 10.5584 11.9087 11.3926 13.6928C10.8559 13.9296 10.2632 14.0621 9.63987 14.0621C7.20501 14.0621 5.22405 12.1072 5.22405 9.70433Z" fill="black"/>
<path id="Vector_2" d="M18.047 0.332043C16.9247 0.567012 15.8331 1.02463 14.8553 1.66493C12.732 0.284689 10.1366 -0.201342 7.5885 0.332043C3.77172 1.13102 0.822239 4.26643 0.154461 7.93859C-0.4691 11.3674 0.822471 14.8154 3.53791 17.0584V18.4199C3.53791 19.8616 4.71084 21.0345 6.15255 21.0345H8.76718V21.9061C8.76718 23.3478 9.94011 24.5207 11.3818 24.5207H18.3542C19.7959 24.5207 20.9688 23.3478 20.9688 21.9061V21.0345H23.5834C25.0251 21.0345 26.1981 19.8616 26.1981 18.4199V17.0579C27.2107 16.2201 28.0565 15.1858 28.6593 14.0443C29.3779 12.6834 29.7424 11.2232 29.7424 9.70446C29.7424 3.68697 24.1616 -0.947965 18.047 0.332043ZM6.15255 19.2915C5.67198 19.2915 5.281 18.9005 5.281 18.4199V16.9778C5.28426 16.9689 5.28739 16.96 5.29042 16.9509C5.4086 16.5943 5.2849 16.2021 4.98357 15.9777C2.52832 14.1499 1.33511 11.1889 1.86943 8.25037C2.40932 5.28172 4.81641 2.69323 7.9456 2.03818C12.963 0.98791 17.4826 4.78081 17.4826 9.70452C17.4826 12.2334 16.274 14.4808 14.3424 15.9412C14.1245 16.1059 13.9964 16.3632 13.9964 16.6364V18.42C13.9964 18.9005 13.6055 19.2915 13.1249 19.2915H10.5103V18.42C10.5103 17.9386 10.1201 17.5484 9.63873 17.5484C9.1574 17.5484 8.76718 17.9386 8.76718 18.42V19.2915H6.15255V19.2915ZM18.3545 5.70947C18.9003 5.47108 19.4914 5.34679 20.0973 5.34679C22.5322 5.34679 24.5131 7.30167 24.5131 9.70452C24.5131 12.1074 22.5322 14.0622 20.0973 14.0622C19.4886 14.0622 18.8949 13.9369 18.3471 13.6964C18.9203 12.4634 19.2258 11.1088 19.2258 9.70452C19.2257 8.30336 18.9222 6.94567 18.3545 5.70947ZM19.2257 21.9061C19.2257 22.3867 18.8347 22.7776 18.3542 22.7776H11.3818C10.9012 22.7776 10.5103 22.3867 10.5103 21.9061V21.0345H13.1249C13.7941 21.0345 14.405 20.7816 14.868 20.3666C15.331 20.7816 15.9419 21.0345 16.6111 21.0345H19.2257V21.9061ZM24.801 15.941C24.5831 16.1057 24.455 16.3631 24.455 16.6363V18.4199C24.455 18.9005 24.064 19.2915 23.5834 19.2915H20.9688V18.4199C20.9688 17.9386 20.5786 17.5484 20.0973 17.5484C19.6159 17.5484 19.2257 17.9386 19.2257 18.4199V19.2915H16.6111C16.1305 19.2915 15.7395 18.9005 15.7395 18.4199V17.058C16.4028 16.5095 16.98 15.8875 17.4645 15.2093C18.2817 15.601 19.1774 15.8053 20.0973 15.8053C23.4933 15.8053 26.2562 13.0685 26.2562 9.70452C26.2562 6.34053 23.4933 3.60371 20.0973 3.60371C19.1838 3.60371 18.2938 3.80532 17.4809 4.19182C17.1364 3.70353 16.7443 3.24498 16.3078 2.82269C16.9692 2.45699 17.6792 2.18994 18.4042 2.03818C23.4445 0.983087 27.9993 4.80196 27.9993 9.70452C27.9993 12.1319 26.8336 14.405 24.801 15.941Z" fill="black"/>
</g>
</svg>
