<svg width="25" height="25" viewBox="0 0 25 25" fill="none" xmlns="http://www.w3.org/2000/svg">
<g id="Group">
<path id="Vector" d="M23.6217 17.6904H22.7662V16.1219C22.7662 15.7282 22.447 15.409 22.0533 15.409C21.6595 15.409 21.3403 15.7282 21.3403 16.1219V17.6904H18.9639V0.865273C18.9639 0.471546 18.6447 0.152344 18.251 0.152344H6.08366C5.68993 0.152344 5.37073 0.471546 5.37073 0.865273V17.6904H2.9943V16.1219C2.9943 15.7282 2.6751 15.409 2.28137 15.409C1.88765 15.409 1.56844 15.7282 1.56844 16.1219V17.6904H0.712929C0.319202 17.6904 0 18.0096 0 18.4033V23.774C0 24.1678 0.319202 24.487 0.712929 24.487H23.6217C24.0154 24.487 24.3346 24.1678 24.3346 23.774V18.4033C24.3346 18.0096 24.0154 17.6904 23.6217 17.6904ZM1.42586 19.1162H5.37073V23.0611H1.42586V19.1162ZM10.2186 23.0611V21.3976H14.116V23.0611H10.2186ZM15.5418 23.0611V20.6847C15.5418 20.291 15.2226 19.9718 14.8289 19.9718H9.50572C9.11199 19.9718 8.79279 20.291 8.79279 20.6847V23.0611H6.79659V1.5782H17.538V23.0611H15.5418ZM22.9088 23.0611H18.9639V19.1162H22.9088V23.0611Z" fill="black"/>
<path id="Vector_2" d="M15.2102 3.24121H9.1265C8.73278 3.24121 8.41357 3.56041 8.41357 3.95414C8.41357 4.34787 8.73278 4.66707 9.1265 4.66707H15.2102C15.6039 4.66707 15.9231 4.34787 15.9231 3.95414C15.9231 3.56041 15.6039 3.24121 15.2102 3.24121Z" fill="black"/>
<path id="Vector_3" d="M10.2664 6.2832H9.5059C9.11217 6.2832 8.79297 6.60241 8.79297 6.99613C8.79297 7.38986 9.11217 7.70906 9.5059 7.70906H10.2664C10.6601 7.70906 10.9793 7.38986 10.9793 6.99613C10.9793 6.60241 10.6601 6.2832 10.2664 6.2832Z" fill="black"/>
<path id="Vector_4" d="M14.8293 6.2832H14.0689C13.6752 6.2832 13.356 6.60241 13.356 6.99613C13.356 7.38986 13.6752 7.70906 14.0689 7.70906H14.8293C15.2231 7.70906 15.5423 7.38986 15.5423 6.99613C15.5423 6.60241 15.2231 6.2832 14.8293 6.2832Z" fill="black"/>
<path id="Vector_5" d="M10.2664 9.3252H9.5059C9.11217 9.3252 8.79297 9.6444 8.79297 10.0381C8.79297 10.4319 9.11217 10.7511 9.5059 10.7511H10.2664C10.6601 10.7511 10.9793 10.4319 10.9793 10.0381C10.9793 9.6444 10.6601 9.3252 10.2664 9.3252Z" fill="black"/>
<path id="Vector_6" d="M14.8293 9.3252H14.0689C13.6752 9.3252 13.356 9.6444 13.356 10.0381C13.356 10.4319 13.6752 10.7511 14.0689 10.7511H14.8293C15.2231 10.7511 15.5423 10.4319 15.5423 10.0381C15.5423 9.6444 15.2231 9.3252 14.8293 9.3252Z" fill="black"/>
<path id="Vector_7" d="M10.2664 12.3672H9.5059C9.11217 12.3672 8.79297 12.6864 8.79297 13.0801C8.79297 13.4738 9.11217 13.793 9.5059 13.793H10.2664C10.6601 13.793 10.9793 13.4738 10.9793 13.0801C10.9793 12.6864 10.6601 12.3672 10.2664 12.3672Z" fill="black"/>
<path id="Vector_8" d="M14.8293 12.3672H14.0689C13.6752 12.3672 13.356 12.6864 13.356 13.0801C13.356 13.4738 13.6752 13.793 14.0689 13.793H14.8293C15.2231 13.793 15.5423 13.4738 15.5423 13.0801C15.5423 12.6864 15.2231 12.3672 14.8293 12.3672Z" fill="black"/>
<path id="Vector_9" d="M10.2664 15.4092H9.5059C9.11217 15.4092 8.79297 15.7284 8.79297 16.1221C8.79297 16.5158 9.11217 16.835 9.5059 16.835H10.2664C10.6601 16.835 10.9793 16.5158 10.9793 16.1221C10.9793 15.7284 10.6601 15.4092 10.2664 15.4092Z" fill="black"/>
<path id="Vector_10" d="M14.8293 15.4092H14.0689C13.6752 15.4092 13.356 15.7284 13.356 16.1221C13.356 16.5158 13.6752 16.835 14.0689 16.835H14.8293C15.2231 16.835 15.5423 16.5158 15.5423 16.1221C15.5423 15.7284 15.2231 15.4092 14.8293 15.4092Z" fill="black"/>
</g>
</svg>
