<svg width="23" height="20" viewBox="0 0 23 20" fill="none" xmlns="http://www.w3.org/2000/svg">
<g id="Group 472">
<path id="Vector" d="M17.5562 10.2212C16.9882 10.2212 16.5235 10.686 16.5235 11.254V13.3194H14.4581C13.8901 13.3194 13.4254 13.7841 13.4254 14.3521C13.4254 14.9201 13.8901 15.3848 14.4581 15.3848H17.5562C18.1242 15.3848 18.589 14.9201 18.589 14.3521V11.254C18.589 10.686 18.1242 10.2212 17.5562 10.2212ZM6.19632 7.12308H8.26176C8.82975 7.12308 9.29448 6.65835 9.29448 6.09036C9.29448 5.52236 8.82975 5.05764 8.26176 5.05764H5.1636C4.5956 5.05764 4.13088 5.52236 4.13088 6.09036V9.18852C4.13088 9.75651 4.5956 10.2212 5.1636 10.2212C5.73159 10.2212 6.19632 9.75651 6.19632 9.18852V7.12308ZM20.6544 0.926758H2.06544C0.929448 0.926758 0 1.85621 0 2.9922V17.4503C0 18.5863 0.929448 19.5157 2.06544 19.5157H20.6544C21.7904 19.5157 22.7198 18.5863 22.7198 17.4503V2.9922C22.7198 1.85621 21.7904 0.926758 20.6544 0.926758ZM19.6217 17.4606H3.09816C2.53016 17.4606 2.06544 16.9959 2.06544 16.4279V4.01459C2.06544 3.44659 2.53016 2.98187 3.09816 2.98187H19.6217C20.1897 2.98187 20.6544 3.44659 20.6544 4.01459V16.4279C20.6544 16.9959 20.1897 17.4606 19.6217 17.4606Z" fill="#404A5E"/>
</g>
</svg>
