<svg width="29" height="30" viewBox="0 0 29 30" fill="none" xmlns="http://www.w3.org/2000/svg">
<g id="Group">
<path id="Vector" d="M2.39522 25.5405C3.82212 26.9674 6.0228 27.1319 7.62908 26.0694L10.5068 28.9472C10.8315 29.272 11.3582 29.2721 11.6831 28.9472L14.0356 26.5947C14.3602 26.27 14.3603 25.7432 14.0356 25.4185L11.2236 22.6065C16.8348 17.2941 22.6127 16.925 24.4127 16.294C24.7035 16.2213 24.9326 15.9979 25.0125 15.7091C25.0925 15.4203 25.011 15.1109 24.7991 14.899L11.8606 1.9604C11.6487 1.74853 11.3393 1.66703 11.0505 1.74698C10.7617 1.82699 10.5383 2.05611 10.4656 2.34682C9.85444 4.05523 9.44811 10.254 3.71521 15.9869C3.32586 16.3763 1.4582 18.2439 1.21899 18.4831C-0.406193 20.1083 -0.40647 22.7389 1.21899 24.3643L2.39522 25.5405ZM11.095 27.1829L8.86452 24.9524L10.0407 23.7762L12.2713 26.0067L11.095 27.1829ZM5.32953 16.7125C7.74901 14.1664 9.58302 11.1474 10.7095 7.8668L18.8927 16.05C15.6121 17.1765 12.5931 19.0105 10.047 21.43L5.32953 16.7125ZM11.723 4.17533L22.5842 15.0365C21.4404 15.3231 21.0712 15.4135 20.7033 15.5081L11.2514 6.05625C11.3409 5.70803 11.5153 5.0044 11.723 4.17533ZM2.39522 19.6593L4.15958 17.895L8.86452 22.5999L7.10016 24.3643C6.12732 25.3371 4.54433 25.3372 3.57144 24.3643L2.39522 23.1881C1.42016 22.213 1.41994 20.6346 2.39522 19.6593Z" fill="black"/>
<path id="Vector_2" d="M17.5231 5.84656C17.9825 5.84656 18.3549 5.47417 18.3549 5.01484V1.6325C18.3549 1.17317 17.9825 0.800781 17.5231 0.800781C17.0638 0.800781 16.6914 1.17317 16.6914 1.6325V5.01484C16.6914 5.47423 17.0638 5.84656 17.5231 5.84656Z" fill="black"/>
<path id="Vector_3" d="M20.4756 7.42236C20.8872 7.62819 21.3864 7.4604 21.5914 7.05042L22.7388 4.75564L23.5863 5.60311C23.7747 5.79147 24.0419 5.87819 24.305 5.83643C24.5681 5.79463 24.7952 5.62934 24.9159 5.39185L26.6348 2.00951C26.8429 1.60003 26.6796 1.09933 26.2702 0.891235C25.8606 0.683082 25.3599 0.846377 25.1519 1.25592L23.9522 3.61657L23.0991 2.7635C22.9101 2.57447 22.6417 2.48781 22.3778 2.53062C22.1139 2.57342 21.8867 2.74054 21.7671 2.97963L20.1037 6.30652C19.8982 6.71734 20.0647 7.21693 20.4756 7.42236Z" fill="black"/>
<path id="Vector_4" d="M24.8193 7.81169C24.67 7.63143 24.4515 7.52241 24.2177 7.51149C23.9832 7.50046 23.7562 7.58867 23.5907 7.75419L21.9272 9.41763C21.6024 9.74245 21.6024 10.269 21.9272 10.5939C22.252 10.9187 22.7786 10.9187 23.1034 10.5939L24.121 9.57633L25.2018 10.8809C25.5337 11.2816 26.1482 11.2824 26.4813 10.8826L28.2002 8.81918C28.4942 8.46625 28.4464 7.94182 28.0935 7.64778C27.7405 7.35374 27.2161 7.40159 26.9221 7.75446L25.8441 9.04863L24.8193 7.81169Z" fill="black"/>
</g>
</svg>
