<svg width="23" height="24" viewBox="0 0 23 24" fill="none" xmlns="http://www.w3.org/2000/svg">
<g id="Group">
<path id="Vector" d="M11.4557 13.7327C12.9732 13.7327 14.2077 12.4981 14.2077 10.9805C14.2077 9.46307 12.9732 8.22852 11.4557 8.22852C9.93817 8.22852 8.70361 9.46307 8.70361 10.9805C8.70361 12.4981 9.93817 13.7327 11.4557 13.7327ZM11.4557 9.57359C12.2315 9.57359 12.8627 10.2047 12.8627 10.9805C12.8627 11.7564 12.2315 12.3876 11.4557 12.3876C10.6798 12.3876 10.0487 11.7564 10.0487 10.9805C10.0487 10.2047 10.6798 9.57359 11.4557 9.57359Z" fill="black"/>
<path id="Vector_2" d="M3.93726 12.2559H3.06727C2.93088 12.2559 2.82031 12.3664 2.82031 12.5028V15.3787C2.82031 15.5151 2.93088 15.6256 3.06727 15.6256H3.93726C4.07365 15.6256 4.18422 15.5151 4.18422 15.3787V12.5028C4.18426 12.3664 4.0737 12.2559 3.93726 12.2559Z" fill="black"/>
<path id="Vector_3" d="M3.93726 17.1836H3.06727C2.93088 17.1836 2.82031 17.2942 2.82031 17.4305V20.3064C2.82031 20.4428 2.93088 20.5534 3.06727 20.5534H3.93726C4.07365 20.5534 4.18422 20.4428 4.18422 20.3064V17.4305C4.18426 17.2942 4.0737 17.1836 3.93726 17.1836Z" fill="black"/>
<path id="Vector_4" d="M19.0439 15.6266H19.9139C20.0503 15.6266 20.1608 15.516 20.1608 15.3797V12.5038C20.1608 12.3674 20.0503 12.2568 19.9139 12.2568H19.0438C18.9074 12.2568 18.7969 12.3674 18.7969 12.5038V15.3797C18.7969 15.516 18.9075 15.6266 19.0439 15.6266Z" fill="black"/>
<path id="Vector_5" d="M19.0439 20.5534H19.9139C20.0503 20.5534 20.1608 20.4428 20.1608 20.3064V17.4305C20.1608 17.2942 20.0503 17.1836 19.9139 17.1836H19.0438C18.9074 17.1836 18.7969 17.2942 18.7969 17.4305V20.3064C18.7969 20.4428 18.9075 20.5534 19.0439 20.5534Z" fill="black"/>
<path id="Vector_6" d="M22.3102 9.34441H17.3173V6.51267L18.6328 6.90552C19.5066 7.12217 19.8336 5.88398 19.0177 5.61667L12.2048 3.58216V1.86656H15.8755C16.2469 1.86656 16.548 1.56544 16.548 1.19402C16.548 0.822602 16.2469 0.521484 15.8755 0.521484H11.5323C11.1608 0.521484 10.8597 0.822602 10.8597 1.19402V3.58211L4.04679 5.61672C3.19872 5.92321 3.59032 7.12401 4.43166 6.90557L5.66541 6.53711V9.34441H0.672537C0.301117 9.34441 0 9.64553 0 10.0169V22.8C0 23.1715 0.301117 23.4726 0.672537 23.4726H16.643C16.6432 23.4726 16.6436 23.4725 16.6438 23.4725C16.6441 23.4725 16.6444 23.4726 16.6447 23.4726H22.3101C22.6815 23.4726 22.9827 23.1715 22.9827 22.8V10.0169C22.9827 9.64553 22.6816 9.34441 22.3102 9.34441ZM11.5322 4.7851L15.9721 6.11103V22.1276H14.4744V17.7674C14.4744 16.1176 13.1321 14.7754 11.4824 14.7754C9.83263 14.7754 8.49043 16.1175 8.49043 17.7672V22.1276H7.01053V10.0169C7.01053 10.0166 7.01048 10.0164 7.01048 10.0161V6.13542L11.5322 4.7851ZM1.34507 10.6895H5.66541V22.1275H1.34507V10.6895ZM9.8355 22.1275V17.7671C9.8355 16.8591 10.5743 16.1204 11.4824 16.1204C12.3905 16.1204 13.1293 16.8592 13.1293 17.7673V22.1275H9.8355V22.1275ZM21.6376 22.1275H17.3173V10.6895H21.6376V22.1275Z" fill="black"/>
</g>
</svg>
